<?xml version="1.0" encoding="UTF-8" standalone="no"?>
<!-- Created with Inkscape (http://www.inkscape.org/) -->

<svg
   xmlns:dc="http://purl.org/dc/elements/1.1/"
   xmlns:cc="http://creativecommons.org/ns#"
   xmlns:rdf="http://www.w3.org/1999/02/22-rdf-syntax-ns#"
   xmlns:svg="http://www.w3.org/2000/svg"
   xmlns="http://www.w3.org/2000/svg"
   xmlns:sodipodi="http://sodipodi.sourceforge.net/DTD/sodipodi-0.dtd"
   xmlns:inkscape="http://www.inkscape.org/namespaces/inkscape"
   width="265.5997mm"
   height="86.858452mm"
   viewBox="0 0 941.1013 307.76617"
   id="svg2"
   version="1.1"
   inkscape:version="0.91 r13725"
   sodipodi:docname="logo02.svg">
  <defs
     id="defs4" />
  <sodipodi:namedview
     id="base"
     pagecolor="#ffffff"
     bordercolor="#666666"
     borderopacity="1.0"
     inkscape:pageopacity="0.0"
     inkscape:pageshadow="2"
     inkscape:zoom="0.49497475"
     inkscape:cx="226.42413"
     inkscape:cy="155.70201"
     inkscape:document-units="px"
     inkscape:current-layer="layer1"
     showgrid="false"
     inkscape:window-width="1600"
     inkscape:window-height="847"
     inkscape:window-x="-8"
     inkscape:window-y="22"
     inkscape:window-maximized="1"
     fit-margin-top="0"
     fit-margin-left="0"
     fit-margin-right="0"
     fit-margin-bottom="0.4" />
  <metadata
     id="metadata7">
    <rdf:RDF>
      <cc:Work
         rdf:about="">
        <dc:format>image/svg+xml</dc:format>
        <dc:type
           rdf:resource="http://purl.org/dc/dcmitype/StillImage" />
        <dc:title></dc:title>
      </cc:Work>
    </rdf:RDF>
  </metadata>
  <g
     inkscape:label="Layer 1"
     inkscape:groupmode="layer"
     id="layer1"
     transform="translate(-98.586319,-390.30368)">
    <rect
       style="opacity:1;fill:none;fill-opacity:1;stroke:#00aad4;stroke-width:19;stroke-linecap:round;stroke-linejoin:round;stroke-miterlimit:4;stroke-dasharray:none;stroke-dashoffset:4;stroke-opacity:1"
       id="rect4155"
       width="257.5889"
       height="288.76617"
       x="108.08632"
       y="399.80368"
       rx="50"
       ry="54.554192" />
    <circle
       style="opacity:1;fill:#004455;fill-opacity:1;stroke:none;stroke-width:3.79999995;stroke-linecap:round;stroke-linejoin:round;stroke-miterlimit:4;stroke-dasharray:none;stroke-dashoffset:4;stroke-opacity:1"
       id="path4147"
       cx="165.22952"
       cy="449.50507"
       r="24.285715" />
    <circle
       r="24.285715"
       cy="450.01013"
       cx="310.14691"
       id="circle4149"
       style="opacity:1;fill:#004455;fill-opacity:1;stroke:none;stroke-width:3.79999995;stroke-linecap:round;stroke-linejoin:round;stroke-miterlimit:4;stroke-dasharray:none;stroke-dashoffset:4;stroke-opacity:1" />
    <circle
       style="opacity:1;fill:#004455;fill-opacity:1;stroke:none;stroke-width:3.79999995;stroke-linecap:round;stroke-linejoin:round;stroke-miterlimit:4;stroke-dasharray:none;stroke-dashoffset:4;stroke-opacity:1"
       id="circle4153"
       cx="237.94128"
       cy="643.91876"
       r="24.285715" />
    <path
       style="fill:#00aad4;fill-rule:evenodd;stroke:#00aad4;stroke-width:19;stroke-linecap:round;stroke-linejoin:miter;stroke-miterlimit:4;stroke-dasharray:none;stroke-opacity:1"
       d="m 166.33391,450.52908 60.78659,72.80049"
       id="path4157"
       inkscape:connector-curvature="0"
       sodipodi:nodetypes="cc" />
    <path
       sodipodi:nodetypes="cc"
       inkscape:connector-curvature="0"
       id="path4159"
       d="m 310.45808,450.52908 -60.78659,73.30556"
       style="fill:#00aad4;fill-rule:evenodd;stroke:#00aad4;stroke-width:19;stroke-linecap:round;stroke-linejoin:miter;stroke-miterlimit:4;stroke-dasharray:none;stroke-opacity:1" />
    <path
       style="fill:#00aad4;fill-rule:evenodd;stroke:#00aad4;stroke-width:19;stroke-linecap:round;stroke-linejoin:miter;stroke-miterlimit:4;stroke-dasharray:none;stroke-opacity:1"
       d="m 237.35272,544.15315 0.57132,98.15428"
       id="path4161"
       inkscape:connector-curvature="0"
       sodipodi:nodetypes="cc" />
    <path
       inkscape:connector-curvature="0"
       id="path4172"
       style="font-style:normal;font-variant:normal;font-weight:normal;font-stretch:normal;font-size:medium;line-height:125%;font-family:'Scream Real';-inkscape-font-specification:'Scream Real';letter-spacing:0.00450046px;word-spacing:0px;fill:#004455;fill-opacity:1;stroke:none;stroke-width:1px;stroke-linecap:butt;stroke-linejoin:miter;stroke-opacity:1;opacity:0.99"
       d="m 580.42936,638.44472 0.24254,0.24254 q -0.24254,26.18817 -18.91367,41.94958 -18.67121,15.76141 -60.13583,15.76141 -55.77112,0 -85.839,-22.79341 l 28.85549,-45.34435 q 10.91174,8.72938 28.61299,13.09409 17.70127,4.3647 28.37052,4.3647 3.15229,0 5.33464,-0.24254 2.42484,-0.48496 4.1222,-2.18235 1.93987,-1.69738 1.93987,-4.84967 -0.24254,-2.9098 -3.63723,-5.33461 -3.39477,-2.42484 -7.75948,-3.39477 -16.73134,-3.87974 -29.09797,-8.48693 -12.12416,-4.84965 -23.76334,-12.12415 -11.3967,-7.51697 -17.45877,-18.67119 -6.06209,-11.15422 -6.06209,-25.46072 0,-24.00582 18.9137,-39.28226 19.15615,-15.27644 57.46847,-15.27644 38.06985,0 73.22992,16.48885 l -27.4006,44.13191 q -10.18431,-6.30454 -23.76333,-10.18428 -13.57906,-3.87974 -22.30847,-3.87974 -15.27644,0 -15.27644,8.00196 0,3.15229 2.18235,4.36468 2.18236,1.21241 13.33657,4.3647 35.16007,9.69932 48.25416,16.48886 28.12802,14.79147 30.31037,44.85936 0.24254,1.69738 0.24254,3.39477 z" />
    <path
       inkscape:connector-curvature="0"
       id="path4174"
       style="font-style:normal;font-variant:normal;font-weight:normal;font-stretch:normal;font-size:medium;line-height:125%;font-family:'Scream Real';-inkscape-font-specification:'Scream Real';letter-spacing:0.00450046px;word-spacing:0px;fill:#004455;fill-opacity:1;stroke:none;stroke-width:1px;stroke-linecap:butt;stroke-linejoin:miter;stroke-opacity:1;opacity:0.99"
       d="m 737.85488,691.06355 -131.18336,0 0,-174.58784 131.18336,0 0,47.04174 -73.95733,-0.24254 0,19.64112 68.86521,0 0.24253,43.64696 -69.10769,0 0,18.67121 73.95734,0.24254 0,45.58681 z" />
    <path
       inkscape:connector-curvature="0"
       id="path4176"
       style="font-style:normal;font-variant:normal;font-weight:normal;font-stretch:normal;font-size:medium;line-height:125%;font-family:'Scream Real';-inkscape-font-specification:'Scream Real';letter-spacing:0.00450046px;word-spacing:0px;fill:#004455;fill-opacity:1;stroke:none;stroke-width:1px;stroke-linecap:butt;stroke-linejoin:miter;stroke-opacity:1;opacity:0.99"
       d="m 825.492,691.06355 -57.22599,0 0,-174.58784 131.18335,0 0,46.79925 -73.95736,0 0,17.4588 69.10769,0 0,47.28419 -69.10769,0 0,63.0456 z" />
    <path
       inkscape:connector-curvature="0"
       id="path4178"
       style="font-style:normal;font-variant:normal;font-weight:normal;font-stretch:normal;font-size:medium;line-height:125%;font-family:'Scream Real';-inkscape-font-specification:'Scream Real';letter-spacing:0.00450046px;word-spacing:0px;fill:#004455;fill-opacity:1;stroke:none;stroke-width:1px;stroke-linecap:butt;stroke-linejoin:miter;stroke-opacity:1;opacity:0.99"
       d="m 1039.6876,691.06355 -113.72459,0 0,-174.58784 57.46851,0 0,127.30365 56.25608,0 0,47.28419 z" />
  </g>
</svg>
